<svg width="48" height="48" viewBox="0 0 48 48" fill="none" xmlns="http://www.w3.org/2000/svg">
<path d="M2.63054 29.802C2.5435 29.2286 2.48622 28.7047 2.4047 28.1846C2.12359 26.3909 2.1411 24.5992 2.43513 22.8104C2.61838 21.6956 3.40776 21.0575 4.39627 21.2017C5.40392 21.3487 5.96988 22.2213 5.79863 23.3639C4.36768 32.9112 12.3827 40.8206 21.9173 39.2703C27.7126 38.328 32.5082 33.3606 33.241 27.541C33.6225 24.5113 31.4851 21.5772 28.4361 20.9451C25.3453 20.3043 22.2575 22.1202 21.3696 25.1045C21.2924 25.3639 21.2402 25.6307 21.1772 25.8943C20.9446 26.8681 20.1304 27.4377 19.2052 27.2737C18.2668 27.1073 17.6419 26.2398 17.8394 25.2465C18.5552 21.6468 20.6362 19.1435 24.0991 17.9446C27.5676 16.7438 30.7986 17.3979 33.5185 19.8501C36.2512 22.3139 37.2061 25.4672 36.43 29.0713C35.2715 34.4521 32.2011 38.4095 27.3562 41.0011C27.1347 41.1196 26.9032 41.2193 26.6752 41.3764C26.592 41.4549 26.51 41.4848 26.3572 41.4988C26.1519 41.5264 26.0175 41.5697 25.8308 41.6225C25.481 41.7466 25.1834 41.8614 24.8433 41.9843C24.6963 42.0688 24.5917 42.1449 24.4871 42.2211C24.3353 42.2763 24.1834 42.3316 23.9548 42.3671C23.8208 42.356 23.7627 42.3605 23.7066 42.3738C16.1316 44.1708 8.72741 41.0857 4.64468 34.4331C4.39961 34.0338 4.13888 33.6441 3.88544 33.2499C3.47336 32.1177 3.06127 30.9855 2.63054 29.802Z" fill="#93C5FD"/>
<path d="M44.1252 20.9263C44.2863 21.7009 44.4361 22.4239 44.5703 23.1498C44.9328 25.11 44.941 27.0747 44.6103 29.0392C44.4246 30.1428 43.6178 30.7667 42.6198 30.6017C41.6312 30.4382 41.0819 29.5853 41.2493 28.4737C42.6744 19.0102 34.8629 11.1404 25.3915 12.4975C19.4832 13.3441 14.5381 18.3682 13.8289 24.2446C13.4644 27.2652 15.6368 30.1797 18.7032 30.784C21.8399 31.4021 24.9235 29.4984 25.7524 26.4305C25.808 26.2251 25.8456 26.0147 25.9028 25.8098C26.1587 24.8921 26.9985 24.3667 27.9042 24.5535C28.7917 24.7366 29.3868 25.5791 29.2199 26.5127C28.7808 28.9684 27.5415 30.9507 25.547 32.4376C22.3475 34.8229 18.0249 34.9419 14.6928 32.7698C11.3547 30.5938 9.73872 26.5661 10.6284 22.6486C11.8116 17.4383 14.7523 13.5489 19.4134 10.9517C19.5822 10.8577 19.7585 10.7773 19.932 10.6427C21.0284 10.196 22.1241 9.79715 23.303 9.4161C23.5355 9.39515 23.684 9.3529 23.8343 9.31822C31.0962 7.64269 38.9488 11.1409 42.5824 17.672C42.9499 18.3326 43.3051 19.0001 43.666 19.6645C43.8129 20.0683 43.9599 20.4721 44.1252 20.9263Z" fill="#93C5FD"/>
<path d="M7.35999 14.5984C7.35999 14.5984 16.4789 0.0770828 31.04 2.43835C42.88 4.35837 45.76 12.6784 45.76 12.6784" stroke="#93C5FD" stroke-width="3.5" stroke-linecap="round"/>
</svg>
