<?xml version="1.0" encoding="UTF-8" standalone="no"?>
<svg
   xmlns:dc="http://purl.org/dc/elements/1.1/"
   xmlns:cc="http://creativecommons.org/ns#"
   xmlns:rdf="http://www.w3.org/1999/02/22-rdf-syntax-ns#"
   xmlns:svg="http://www.w3.org/2000/svg"
   xmlns="http://www.w3.org/2000/svg"
   id="svg33"
   version="1.1"
   fill="none"
   viewBox="0 0 350 220"
   height="220"
   width="350">
  <metadata
     id="metadata37">
    <rdf:RDF>
      <cc:Work
         rdf:about="">
        <dc:format>image/svg+xml</dc:format>
        <dc:type
           rdf:resource="http://purl.org/dc/dcmitype/StillImage" />
        <dc:title></dc:title>
      </cc:Work>
    </rdf:RDF>
  </metadata>
  <path
     d="m 0,95.794637 h 349.99999 v 87.000003 c 0,6.627 -5.373,12 -12,12 H 12 c -6.62741,0 -12,-5.373 -12,-12 z"
     fill="#234E70"
     id="path4-9"
     style="fill:#ffd600;fill-opacity:1" />
  <rect
     style="fill:#b9975b;fill-opacity:1"
     id="rect2"
     fill="#FBF8BE"
     rx="12"
     height="220"
     width="350" />
  <g
     id="g12"
     clip-path="url(#clip0_17_138)" />
  <defs
     id="defs31">
    <clipPath
       id="clip0_17_138">
      <rect
         id="rect28"
         transform="translate(282 26)"
         fill="white"
         height="30.3922"
         width="50" />
    </clipPath>
    <path
       id="SVGID_1_"
       d="M80.4,123.2c2.3,7.4,4,14.9,6.2,16.5c6.8,4.9,20.5,0.4,28.6,6.2c7.7,5.6,5.9,24.5,13,25.4      c7.3,0.9,6.5-9.8,8.9-18.2c2.5-9.4,6.5-18.3,11.9-26.3c-3.4-4.5-7.5-8.4-12.1-11.6c-4.4-3.1-9.3-5.4-14.5-6.9      c-9.2-2.7-18.9-3.8-28.5-3.2l-0.5,0.1l0,0c-7.9,0.4-16.7,3.6-19.2-1.4C75.2,107.2,78,115.7,80.4,123.2" />
    <path
       id="SVGID_3_"
       d="M159.9,115.2c-4.3,3.3-8,7.2-11,11.7c-5.4,8-9.4,16.8-11.9,26.1l-0.1,0.5l0,0c-2.1,7.6-1.7,17-7.2,17.8      c3.6,0,12.5,0,20.4,0.1c7.8,0.1,15.4,0.8,17.6-0.8c6.8-4.9,6.7-19.4,14.8-25.2c3.7-2.7,9.7-2.3,15.3-1.9      c5.9,0.4,11.3,0.8,12.9-2.5c3.1-6.6-7.3-9.2-14.6-14.1c-8.2-5.2-15.4-11.8-21.3-19.5C169.4,109.2,164.4,111.8,159.9,115.2" />
    <path
       id="SVGID_5_"
       d="M104.6,42c-6.4,4.5-12.9,8.4-13.8,11c-2.6,8,6,19.6,2.9,29.1c-2.9,9-21.5,13.2-20.1,20.2      c1.4,7.2,11.4,3.2,20.1,2.8c9.7-0.6,19.4,0.5,28.7,3.2c3.2-4.6,5.7-9.7,7.3-15.1c1.6-5.2,2.3-10.6,2.1-16      c-0.3-9.6-2.3-19.1-5.7-28.1l-0.3-0.5l0,0c-2.8-7.4-8.6-14.8-4.6-18.7C118.3,32.2,111.1,37.5,104.6,42" />
    <path
       id="SVGID_7_"
       d="M189.2,62.6c-7.5,6.1-16,10.9-25.1,14.2c0.1,5.6,1.1,11.2,2.9,16.5c1.8,5.1,4.4,9.9,7.7,14.1      c5.9,7.6,13.1,14.2,21.2,19.4l0.4,0.3l0,0c6.6,4.3,15.6,6.9,14.7,12.4c1.1-3.4,3.9-11.9,6.4-19.4c2.5-7.4,5.5-14.4,4.7-17      c-2.6-8-16.4-12.3-19.4-21.8c-2.9-9,9.6-23.3,4.4-28.1c-0.9-0.9-2.1-1.4-3.3-1.4C199.4,51.6,194.7,58.3,189.2,62.6" />
    <path
       id="SVGID_9_"
       d="M122.5,29.2c-6.4,3.6,0.5,11.8,3.5,20c3.5,9,5.5,18.6,5.8,28.2c5.4,1.6,10.9,2.4,16.6,2.3      c5.4-0.1,10.7-1.1,15.8-3c9-3.3,17.5-8.1,24.9-14.1l0.4-0.3l0,0c6.2-5,11.4-12.8,16.3-10.2c-2.9-2.1-10.1-7.3-16.5-12.1      s-12-9.7-14.7-9.7c-8.4,0-16.8,11.8-26.8,11.8c-8.6,0-17.3-13.4-23.5-13.4C123.7,28.7,123,28.9,122.5,29.2" />
    <path
       id="SVGID_11_"
       d="M122.5,29.2c-1.6,0.8-2.7,2.5-2.6,4.3l0,0c0,4.2,4,9.9,6.1,15.6c3.5,9,5.5,18.6,5.8,28.3      c5.4,1.6,10.9,2.4,16.6,2.3c5.4-0.1,10.7-1.1,15.8-3c9-3.3,17.5-8.1,24.9-14.1l0.4-0.3l0,0c6.2-5,11.4-12.8,16.3-10.2      c-2.9-2.1-10.1-7.3-16.5-12.1s-12-9.7-14.7-9.7c-8.4,0-16.8,11.8-26.8,11.8c-8.6,0-17.3-13.4-23.5-13.4      C123.7,28.7,123,28.9,122.5,29.2" />
    <path
       id="SVGID_14_"
       d="M104.6,42c-6.4,4.5-12.9,8.4-13.8,11c-2.6,8,6,19.6,2.9,29.1c-2.9,9-21.5,13.2-20.1,20.2      c1.4,7.2,11.4,3.2,20.1,2.8c9.7-0.6,19.4,0.5,28.7,3.2c3.2-4.6,5.7-9.7,7.3-15.1c1.6-5.2,2.3-10.6,2.1-16      c-0.3-9.6-2.3-19.1-5.7-28.1l-0.3-0.5l0,0c-2.8-7.4-8.6-14.8-4.6-18.7C118.3,32.2,111.1,37.5,104.6,42" />
    <path
       id="SVGID_17_"
       d="M74.1,103.8c1.1,3.4,3.9,11.9,6.2,19.5c2.3,7.4,4,14.9,6.2,16.5c6.8,4.9,20.5,0.4,28.6,6.2      c7.7,5.6,5.9,24.5,13,25.4c0.3,0,0.5,0,0.8,0h0.1c6.4,0,5.8-10.2,8.1-18.2c2.5-9.4,6.5-18.3,11.9-26.3      c-3.4-4.5-7.5-8.4-12.1-11.6c-4.4-3.1-9.3-5.4-14.5-6.9c-9.2-2.7-18.9-3.8-28.5-3.2l-0.5,0.1l0,0      C85.4,105.5,76.6,108.8,74.1,103.8z" />
    <path
       id="SVGID_20_"
       d="M159.9,115.2c-4.3,3.3-8,7.2-11,11.7c-5.4,8-9.4,16.8-11.9,26.1l-0.1,0.5l0,0c-2.1,7.6-1.7,17-7.2,17.8      c3.6,0,12.5,0,20.4,0.1c3.6,0.1,7.2,0.2,10.3,0.2h0.7c3.1,0,5.5-0.2,6.6-1c6.8-4.9,6.7-19.4,14.8-25.2c3.7-2.7,9.7-2.3,15.3-1.9      c5.9,0.4,11.3,0.8,12.9-2.5c0.3-0.7,0.5-1.5,0.6-2.2v-0.1c0-5-8.8-7.5-15.1-11.8c-8.2-5.2-15.4-11.8-21.3-19.5      C169.4,109.2,164.4,111.9,159.9,115.2" />
    <path
       id="SVGID_23_"
       d="M189.2,62.6c-7.5,6.1-16,10.9-25.1,14.2c0.1,5.6,1.1,11.2,2.9,16.5c1.8,5.1,4.4,9.9,7.7,14.1      c5.9,7.6,13.1,14.2,21.2,19.4l0.4,0.3l0,0c6.6,4.3,15.6,6.9,14.7,12.4c1.1-3.4,3.9-11.9,6.4-19.4c2.5-7.4,5.5-14.4,4.7-17      c-2.6-8-16.4-12.3-19.4-21.8c-2.9-9,9.6-23.3,4.4-28.1c-0.9-0.9-2.1-1.4-3.3-1.4C199.4,51.6,194.7,58.3,189.2,62.6" />
  </defs>
  <path
     style="fill:#046a38;fill-opacity:1"
     id="path4"
     fill="#234E70"
     d="M0 121H350V208C350 214.627 344.627 220 338 220H12C5.37259 220 0 214.627 0 208V121Z" />
  <style
     type="text/css"
     id="style1755">
	.st0{fill:#ABE1FA;}
	.st1{clip-path:url(#SVGID_2_);}
	.st2{fill:#006594;}
	.st3{fill:#FFE6CA;}
	.st4{clip-path:url(#SVGID_4_);}
	.st5{fill:#3678A8;}
	.st6{fill:#000034;}
	.st7{fill:#E0861B;}
	.st8{fill:#4A8ECC;}
	.st9{fill:#8B0304;}
	.st10{fill:#CA6C18;}
	.st11{fill:#007243;}
	.st12{fill:#ED1D24;}
	.st13{fill:#CE8A14;}
	.st14{fill:#276A9B;}
	.st15{fill:#DC651E;}
	.st16{fill:#0072BC;}
	.st17{fill:#C4161C;}
	.st18{fill:#F7941E;}
	.st19{fill:#2E3092;}
	.st20{fill:#D78817;}
	.st21{fill:#030F50;}
	.st22{fill:#2D7D2F;}
	.st23{fill:#DB521F;}
	.st24{fill:#FAA61A;}
	.st25{fill:#9E0B0F;}
	.st26{fill:#232176;}
	.st27{fill:#D191C0;}
	.st28{fill:#985006;}
	.st29{fill:#2F631C;}
	.st30{fill:#FCC8AC;}
	.st31{clip-path:url(#SVGID_6_);}
	.st32{fill:#B4DDC1;}
	.st33{clip-path:url(#SVGID_8_);}
	.st34{fill:#004521;}
	.st35{clip-path:url(#SVGID_10_);}
	.st36{fill:#52C6D8;}
	.st37{clip-path:url(#SVGID_12_);}
	.st38{fill:url(#SVGID_13_);}
	.st39{clip-path:url(#SVGID_15_);}
	.st40{fill:url(#SVGID_16_);}
	.st41{clip-path:url(#SVGID_18_);}
	.st42{fill:url(#SVGID_19_);}
	.st43{clip-path:url(#SVGID_21_);}
	.st44{fill:url(#SVGID_22_);}
	.st45{clip-path:url(#SVGID_24_);}
	.st46{fill:url(#SVGID_25_);}
	.st47{fill:#010101;}
	.st48{fill:none;}
</style>
</svg>
