<svg width="244" height="142" viewBox="0 0 244 142" fill="none" xmlns="http://www.w3.org/2000/svg">
<path d="M0 21C0 14.3726 5.37258 9 12 9H222C228.627 9 234 14.3726 234 21V129C234 135.627 228.627 141 222 141H12C5.37258 141 0 135.627 0 129V21Z" fill="url(#paint0_linear_2080_13538)"/>
<rect width="194.362" height="285.267" transform="matrix(-0.626305 -0.779578 -0.779578 0.626305 361.931 130.52)" fill="white" fill-opacity="0.03"/>
<rect width="194.362" height="285.267" transform="matrix(-0.626305 -0.779578 -0.779578 0.626305 381.339 149.928)" fill="white" fill-opacity="0.04"/>
<rect width="194.362" height="285.267" transform="matrix(-0.626305 -0.779578 -0.779578 0.626305 400 169.336)" fill="white" fill-opacity="0.08"/>
<g clip-path="url(#clip0_2080_13538)">
<mask id="mask0_2080_13538" style="mask-type:luminance" maskUnits="userSpaceOnUse" x="16" y="92" width="120" height="29">
<path d="M136 92H16V120.571H136V92Z" fill="white"/>
</mask>
<g mask="url(#mask0_2080_13538)">
<path d="M57.7755 102.965H60.7158V113.824C60.7158 115.597 59.4876 116.684 57.6457 116.684H53.9263C52.0844 116.684 50.8564 115.609 50.8564 113.824V102.965H53.832V113.458C53.832 113.718 54.0326 113.919 54.2923 113.919H57.3152C57.5749 113.919 57.7755 113.718 57.7755 113.458V102.965ZM61.979 113.683H64.9193V116.66H61.979V113.683ZM66.2063 107.645V105.482C66.2063 104.041 67.2453 102.954 68.8749 102.954H73.1961C74.8257 102.954 75.8647 104.029 75.8647 105.482V107.491H73.0311V106.026C73.0311 105.766 72.8301 105.565 72.5704 105.565H69.5123C69.2526 105.565 69.0517 105.766 69.0517 106.026V107.361C69.0517 107.562 69.158 107.739 69.4768 107.834L73.9638 109.145C75.3688 109.571 75.853 110.303 75.853 111.839V114.143C75.853 115.573 74.7784 116.672 73.1609 116.672H68.8393C67.2336 116.672 66.1825 115.573 66.1825 114.143V111.922H69.0164V113.588C69.0164 113.848 69.2171 114.049 69.4768 114.049H72.5352C72.7949 114.049 72.9955 113.848 72.9955 113.588V112.123C72.9955 111.898 72.8539 111.721 72.5704 111.65L68.0837 110.339C66.6784 109.925 66.2063 109.193 66.2063 107.645ZM77.1399 113.683H80.0799V116.66H77.1399V113.683ZM92.5844 114.368H87.7549L87.1174 116.672H84.0472L88.1447 102.965H92.419L96.3507 116.672H93.2218L92.5844 114.368ZM91.8641 111.768L90.1872 105.6L88.4634 111.768H91.8641ZM106.588 111L105.844 111.627L108.3 116.684H104.994L102.822 111.969H100.826V116.672H97.8504V102.965H104.769C106.494 102.965 107.662 104.005 107.662 105.589V108.259C107.651 109.606 107.521 110.232 106.588 111ZM104.675 108.909V106.144C104.675 105.884 104.475 105.683 104.215 105.683H100.826V109.37H104.215C104.475 109.37 104.675 109.169 104.675 108.909ZM118.478 102.965H122.339V116.672H119.482V108.046L116.506 116.672H115.644L112.681 108.07V116.672H109.941V102.965H113.802L116.164 110.457L118.478 102.965ZM135.764 102.965L131.136 111.438V116.672H128.16V111.461L123.662 102.965H127.157L129.79 108.306L132.411 102.965H135.764Z" fill="white"/>
<path d="M45.7552 102.965H34.479L30.9957 92.2363L27.5125 102.965H16.2363L25.3636 109.606L21.8803 120.335L31.0076 113.706L40.1348 120.335L36.6397 109.606L45.7552 102.965ZM30.9957 110.41L26.934 113.364L28.4807 108.59L24.419 105.636H29.4371L30.9957 100.862L32.5425 105.636H37.5607L33.499 108.59L35.0457 113.364L30.9957 110.41Z" fill="#FFCC01"/>
</g>
</g>
<defs>
<linearGradient id="paint0_linear_2080_13538" x1="3.86847e-06" y1="93.3141" x2="125.337" y2="151.251" gradientUnits="userSpaceOnUse">
<stop stop-color="#221F20"/>
<stop offset="1" stop-color="#1A1A1A"/>
</linearGradient>
<clipPath id="clip0_2080_13538">
<rect width="120" height="28.5714" fill="white" transform="translate(16 92)"/>
</clipPath>
</defs>
</svg>
