<?xml version="1.0" encoding="UTF-8"?>
<svg fill="#20264B" width="100pt" height="100pt" version="1.1" viewBox="0 0 100 100" xmlns="http://www.w3.org/2000/svg">
 <g>
  <path d="m47.613 59.812h4.7734c0.57422 0 1.0391-0.46484 1.0391-1.043 0-0.57422-0.46484-1.0391-1.0391-1.0391h-4.7734c-0.57422 0-1.0391 0.46484-1.0391 1.0391 0 0.57812 0.46484 1.043 1.0391 1.043z"/>
  <path d="m98.957 78.051h-1.5078v-13.664h1.5078c0.32031 0.003906 0.625-0.13281 0.82812-0.37891 0.20312-0.24609 0.28125-0.57031 0.21484-0.88281l-0.9375-4.2812c-0.10547-0.48828-0.54297-0.83594-1.043-0.82422h-20.832v-1.9375h1.418c0.31641 0.007813 0.62109-0.12891 0.82422-0.375 0.20312-0.24609 0.28125-0.57422 0.21484-0.88281l-0.9375-4.2812c-0.10547-0.48828-0.53906-0.83594-1.0391-0.82422h-8.0547v-7.293c0.80078 0 1.2188 0.074219 1.5938-0.39453 0.19922-0.24609 0.27734-0.56641 0.21094-0.875l-0.92578-4.2812h-0.003907c-0.10547-0.48828-0.53906-0.83594-1.0391-0.82422h-2.2617c-0.35547-5.8945-3.707-11.195-8.8789-14.043-5.1719-2.8516-11.445-2.8516-16.617 0-5.1719 2.8477-8.5234 8.1484-8.8789 14.043h-2.2812c-0.5-0.011719-0.9375 0.33594-1.043 0.82422l-0.92578 4.2812c-0.066406 0.30859 0.011719 0.62891 0.20703 0.875 0.38672 0.48047 0.86328 0.39453 1.5938 0.39453v7.293h-8.0391c-0.5-0.011719-0.9375 0.33594-1.043 0.82422l-0.9375 4.2812c-0.066406 0.30859 0.011719 0.63672 0.21484 0.88281 0.20312 0.24609 0.50781 0.38281 0.82812 0.375h1.418l-0.003907 1.9375h-20.832c-0.5-0.011719-0.9375 0.33594-1.043 0.82422l-0.92578 4.2812c-0.066406 0.3125 0.011719 0.63672 0.21484 0.88281 0.20312 0.24609 0.50781 0.38281 0.82812 0.37891h1.5078v13.664h-1.5078c-0.57812 0-1.043 0.46875-1.043 1.043s0.46484 1.043 1.043 1.043h97.914c0.57812 0 1.043-0.46875 1.043-1.043s-0.46484-1.043-1.043-1.043zm-68.145 0h-1.7188v-18.238h1.7188zm22.156-7.293h-5.9375v-3.8555 0.003906c0-1.6406 1.3281-2.9688 2.9688-2.9688s2.9688 1.3281 2.9688 2.9688zm-7.1367 2.1602h8.2305c0.75-0.054688 1.4648 0.31641 1.8555 0.95703l2.4141 4.1758h-16.664l2.4492-4.2305-0.003907 0.003907c0.36719-0.59375 1.0234-0.94141 1.7188-0.90625zm-6.9492 5.207h-1.7695v-18.312h1.7188zm24.051 0h-1.7656v-18.312h1.7188zm8.0195 0h-1.7656v-18.312h1.7188zm26.215-18.02 0.48047 2.1992-20.449-0.003907v-2.1953zm-47.168-38.156c3.832 0.003906 7.5195 1.457 10.324 4.0664 2.8047 2.6094 4.5195 6.1836 4.8008 10.004h-30.207c0.28125-3.8125 1.9883-7.3789 4.7852-9.9883s6.4727-4.0664 10.297-4.082zm-18.625 16.156h37.25l0.48047 2.207h-38.211zm1.0938 4.293 35.062-0.003907v7.293h-2.5625v-4.8945c0-0.27734-0.10938-0.54297-0.30469-0.73828-0.19531-0.19531-0.46094-0.30469-0.73828-0.30469h-3.8008c-0.57422 0-1.043 0.46484-1.043 1.043v4.8867h-2.082v-4.8867c0-0.27734-0.10938-0.54297-0.30469-0.73828-0.19531-0.19531-0.46094-0.30469-0.73828-0.30469h-3.875c-0.57422 0-1.0391 0.46484-1.0391 1.043v4.8867l-2.0859-0.003907v-4.8828c0-0.27734-0.10938-0.54297-0.30469-0.73828-0.19531-0.19531-0.46094-0.30469-0.73438-0.30469h-3.8359c-0.57422 0-1.0391 0.46484-1.0391 1.043v4.8867h-2.082l-0.003907-4.8867c0-0.27734-0.10938-0.54297-0.30469-0.73828-0.19531-0.19531-0.46094-0.30469-0.73438-0.30469h-3.8438c-0.57812 0-1.043 0.46484-1.043 1.043v4.8867l-2.5625-0.003907zm30.418 7.293-1.7188-0.003906v-3.8555h1.7188zm-8.0117 0-1.75-0.003906v-3.8555h1.7305zm-8.0195 0-1.7305-0.003906v-3.8555h1.75zm-8.0195 0-1.7227-0.003906v-3.8555h1.7188zm-15.625 2.082 53.633-0.003907 0.48047 2.1992h-54.648zm51.957 4.2812v21.996h-2.082l-0.003907-19.281c0-0.27344-0.10938-0.53906-0.30469-0.73438-0.19531-0.19531-0.46094-0.30469-0.73438-0.30469h-3.8984c-0.57422 0-1.0391 0.46484-1.0391 1.0391v19.281h-2.1367v-19.281c0-0.27344-0.10938-0.53906-0.30469-0.73438-0.19531-0.19531-0.46094-0.30469-0.73828-0.30469h-3.8008c-0.57422 0-1.043 0.46484-1.043 1.0391v16.449l-1.418-2.4492h0.003907c-0.57031-0.96875-1.5195-1.6523-2.6172-1.8828v-3.9609c0-2.7891-2.2617-5.0508-5.0508-5.0508s-5.0508 2.2617-5.0508 5.0508v3.9609c-1.0977 0.23047-2.0469 0.91406-2.6172 1.8828l-1.418 2.4492 0.003907-16.449c0-0.27344-0.10938-0.53906-0.30469-0.73438-0.19531-0.19531-0.46094-0.30469-0.73828-0.30469h-3.8008c-0.57812 0-1.043 0.46484-1.043 1.0391v19.281h-2.1367v-19.281c0-0.27344-0.10938-0.53906-0.30469-0.73438-0.19531-0.19531-0.46094-0.30469-0.73438-0.30469h-3.8047c-0.57422 0-1.0391 0.46484-1.0391 1.0391v19.281h-2.082l-0.003907-21.969zm-72.336 4.0508h19.969v2.1992l-20.445-0.003907zm6.0117 17.945v-9.9375h1.7305v9.9375zm8.0195 0v-9.9375h1.7305v9.9375zm3.8125 0v-10.977c0-0.27734-0.10938-0.54297-0.30469-0.73828-0.19531-0.19531-0.46094-0.30469-0.73438-0.30469h-3.8125c-0.57812 0-1.043 0.46484-1.043 1.043v10.977h-2.082v-10.977c0-0.27734-0.10938-0.54297-0.30469-0.73828-0.19531-0.19531-0.46094-0.30469-0.73828-0.30469h-3.8555c-0.57422 0-1.0391 0.46484-1.0391 1.043v10.977h-2.082l-0.003907-13.664h18.125v13.664zm60.73 0v-9.9375h1.7305v9.9375zm8.0195 0v-9.9375h1.7305v9.9375zm3.8125 0v-10.977c0-0.27734-0.10938-0.54297-0.30469-0.73828-0.19531-0.19531-0.46094-0.30469-0.73438-0.30469h-3.8125c-0.57812 0-1.043 0.46484-1.043 1.043v10.977h-2.082v-10.977c0-0.27734-0.10938-0.54297-0.30469-0.73828-0.19531-0.19531-0.46094-0.30469-0.73828-0.30469h-3.8555c-0.57422 0-1.0391 0.46484-1.0391 1.043v10.977h-2.082l-0.003907-13.664h18.125v13.664z"/>
 </g>
</svg>
