<svg width="24" height="24" viewBox="0 0 24 24" fill="none" xmlns="http://www.w3.org/2000/svg">
<path d="M19.1886 17.6298C17.4486 16.0698 14.8686 15.0898 11.9986 15.0898C9.12859 15.0898 6.54859 16.0798 4.80859 17.6298" stroke="black" stroke-width="1.5" stroke-linecap="round" stroke-linejoin="round"/>
<path d="M11.9997 11.9994C13.4191 11.9994 14.5697 10.8488 14.5697 9.42937C14.5697 8.01 13.4191 6.85938 11.9997 6.85938C10.5803 6.85938 9.42969 8.01 9.42969 9.42937C9.42969 10.8488 10.5803 11.9994 11.9997 11.9994Z" stroke="black" stroke-width="1.5" stroke-linecap="round" stroke-linejoin="round"/>
<path d="M12 21.25C17.1086 21.25 21.25 17.1086 21.25 12C21.25 6.89137 17.1086 2.75 12 2.75C6.89137 2.75 2.75 6.89137 2.75 12C2.75 17.1086 6.89137 21.25 12 21.25Z" stroke="black" stroke-width="1.5" stroke-linecap="round" stroke-linejoin="round"/>
</svg>
