<svg width="40" height="40" viewBox="0 0 40 40" fill="none" xmlns="http://www.w3.org/2000/svg">
<g clip-path="url(#clip0_2080_14065)">
<path d="M35.7131 7.52146C39.7241 10.4217 41.1434 17.5798 39.0145 22.6706C36.8856 27.7923 31.2085 30.9085 25.7165 32.9449C20.2554 35.0121 15.0103 36.0611 11.3387 34.1482C7.66716 32.2352 5.53825 27.4221 3.28594 21.4673C1.00277 15.5434 -1.43467 8.47793 1.03362 5.94793C3.53277 3.41793 10.9685 5.36171 18.0031 5.67024C25.0069 5.97878 31.6713 4.62122 35.7131 7.52146Z" fill="#F9FAFB"/>
<path d="M19.7003 10.8049C19.8917 10.7213 20.1094 10.7213 20.3008 10.8049C24.0197 12.4297 27.5442 14.416 30.83 16.7192C31.0678 16.8859 31.188 17.1748 31.1386 17.461C31.0892 17.7471 30.879 17.979 30.5991 18.0563C29.9142 18.2454 29.2352 18.449 28.5623 18.666C25.8312 19.5468 23.2023 20.655 20.6976 21.9684L20.6944 21.9701C20.5808 22.0297 20.4675 22.0897 20.3545 22.1501C20.1336 22.2681 19.8684 22.2681 19.6476 22.1501C19.5334 22.0891 19.4191 22.0285 19.3044 21.9684C18.0659 21.319 16.7971 20.7197 15.5005 20.1733V19.9496C15.5005 19.8182 15.5679 19.7017 15.6722 19.6385C17.1773 18.7266 18.7299 17.8853 20.3252 17.119C20.6986 16.9397 20.8559 16.4916 20.6765 16.1182C20.4972 15.7448 20.0491 15.5875 19.6758 15.7669C18.0365 16.5543 16.4413 17.4187 14.895 18.3556C14.4416 18.6302 14.1368 19.0798 14.0366 19.5834C13.1816 19.2545 12.3155 18.9482 11.4388 18.6655C10.766 18.4485 10.0869 18.2453 9.40203 18.0563C9.12211 17.979 8.91195 17.7471 8.86253 17.461C8.81311 17.1748 8.93331 16.8859 9.1711 16.7192C12.4569 14.416 15.9815 12.4297 19.7003 10.8049Z" fill="#172554"/>
<path d="M21.0614 23.4731C23.5002 22.1699 26.0626 21.0683 28.7263 20.1902C28.8605 21.605 28.9462 23.0339 28.9818 24.4751C28.9894 24.7843 28.8064 25.0665 28.5209 25.1857C25.6698 26.3761 22.9579 27.8337 20.4164 29.5273C20.1646 29.6952 19.8365 29.6952 19.5846 29.5273C17.0432 27.8337 14.3312 26.3761 11.4801 25.1857C11.1946 25.0665 11.0116 24.7843 11.0193 24.4751C11.0548 23.0338 11.1405 21.6048 11.2748 20.1899C12.1958 20.4935 13.1046 20.8238 14.0005 21.1799V22.4503C13.5521 22.7097 13.2505 23.1944 13.2505 23.7496C13.2505 24.245 13.4906 24.6842 13.8607 24.9574C13.7712 25.338 13.6387 25.7104 13.4633 26.0671C13.916 26.2808 14.3648 26.5013 14.8096 26.7286C15.0629 26.2133 15.2466 25.6725 15.3606 25.1203C15.885 24.8866 16.2505 24.3608 16.2505 23.7496C16.2505 23.1944 15.9488 22.7097 15.5005 22.4503V21.8055C16.6719 22.3174 17.8193 22.8739 18.9407 23.4731C19.6032 23.8271 20.3988 23.8271 21.0614 23.4731Z" fill="#172554"/>
<path d="M12.4627 27.4619C12.8818 27.0428 13.2155 26.5707 13.4633 26.0671C13.916 26.2808 14.3648 26.5013 14.8096 26.7286C14.491 27.3764 14.0621 27.9838 13.5234 28.5226C13.2305 28.8155 12.7556 28.8155 12.4627 28.5226C12.1698 28.2297 12.1698 27.7548 12.4627 27.4619Z" fill="#172554"/>
</g>
<defs>
<clipPath id="clip0_2080_14065">
<rect width="40" height="35.5556" fill="white" transform="translate(0 2)"/>
</clipPath>
</defs>
</svg>
