<svg width="40" height="40" viewBox="0 0 40 40" fill="none" xmlns="http://www.w3.org/2000/svg">
<g clip-path="url(#clip0_2080_14084)">
<path d="M32.1783 11.1274C36.8271 15.5741 41.0716 21.6377 39.7578 26.017C38.4103 30.3962 31.4372 33.0575 25.4409 34.8429C19.4784 36.6283 14.4253 37.5042 10.6524 35.7188C6.84582 33.9334 4.28563 29.4867 2.26442 23.9621C0.243212 18.4374 -1.20532 11.8348 1.42225 7.8261C4.08351 3.85106 10.8209 2.4699 16.716 3.17733C22.5775 3.88475 27.5632 6.68075 32.1783 11.1274Z" fill="#F9FAFB"/>
<path fill-rule="evenodd" clip-rule="evenodd" d="M19.6741 12.0746C19.8801 11.9751 20.1202 11.9751 20.3262 12.0746L27.5762 15.5746C27.9493 15.7547 28.1057 16.203 27.9256 16.5761C27.7576 16.924 27.3561 17.0835 27.0002 16.9572V26.5H27.2502C27.6644 26.5 28.0002 26.8358 28.0002 27.25C28.0002 27.6642 27.6644 28 27.2502 28H12.7502C12.336 28 12.0002 27.6642 12.0002 27.25C12.0002 26.8358 12.336 26.5 12.7502 26.5H13.0002V16.9572C12.6442 17.0835 12.2427 16.924 12.0748 16.5761C11.8947 16.203 12.0511 15.7547 12.4241 15.5746L19.6741 12.0746ZM21 16C21 16.5523 20.5523 17 20 17C19.4477 17 19 16.5523 19 16C19 15.4477 19.4477 15 20 15C20.5523 15 21 15.4477 21 16ZM17.5 19.75C17.5 19.3358 17.1642 19 16.75 19C16.3358 19 16 19.3358 16 19.75V25.25C16 25.6642 16.3358 26 16.75 26C17.1642 26 17.5 25.6642 17.5 25.25V19.75ZM20.75 19.75C20.75 19.3358 20.4142 19 20 19C19.5858 19 19.25 19.3358 19.25 19.75V25.25C19.25 25.6642 19.5858 26 20 26C20.4142 26 20.75 25.6642 20.75 25.25V19.75ZM24 19.75C24 19.3358 23.6642 19 23.25 19C22.8358 19 22.5 19.3358 22.5 19.75V25.25C22.5 25.6642 22.8358 26 23.25 26C23.6642 26 24 25.6642 24 25.25V19.75Z" fill="#172554"/>
</g>
<defs>
<clipPath id="clip0_2080_14084">
<rect width="40" height="35.5556" fill="white" transform="translate(0 2)"/>
</clipPath>
</defs>
</svg>
