<?xml version="1.0" encoding="UTF-8"?>
<svg fill="#20264B" width="100pt" height="100pt" version="1.1" viewBox="0 0 100 100" xmlns="http://www.w3.org/2000/svg">
 <path d="m93.293 36.512l-42.918-14.832c-0.36328-0.125-0.75781-0.125-1.1211 0l-42.551 14.832c-0.67578 0.23438-1.1367 0.87109-1.1484 1.5859-0.011719 0.71484 0.42578 1.3672 1.0938 1.6211l17.281 6.6641v17.258c0 0.96484 0.94531 1.5781 1.7773 1.9844 1.1016 0.49219 2.8828 1.082 5.7656 1.8242v9.25c0 0.70703 0.4375 1.3438 1.0977 1.5977 0.66406 0.25391 1.4102 0.074219 1.8828-0.45312l3.5-3.8906 3.5 3.8906c0.32812 0.36719 0.79688 0.56641 1.2695 0.56641 0.20703 0 0.41406-0.035156 0.61328-0.11328 0.66016-0.25391 1.0977-0.89062 1.0938-1.5977l-0.011719-7.0469c1.7188 0.13672 3.4297 0.23047 5.0938 0.23047 7.0312 0 13.285-1.1602 17.289-2.1328 8.3008-2.0156 8.3008-2.7383 8.3008-3.832l0.003907-17.219 18.238-6.9727c0.67188-0.25781 1.1094-0.90625 1.0977-1.625-0.007812-0.72266-0.46875-1.3555-1.1484-1.5898zm-65.941 26.066v-14.875l4.1211 1.5898v14.609c-1.8789-0.52344-3.2812-1.0078-4.1211-1.3242zm11.871 7.6836c-0.64844-0.71875-1.8945-0.71875-2.543 0l-1.793 1.9883v-21.633l6.0898 2.3438 0.027344 19.281zm32.469-7.4844c-2.9141 1.0469-11.867 3.6875-22.172 3.6875-1.6641 0-3.375-0.09375-5.1016-0.23828l-0.019531-11.945 4.8008 1.8516c0.19922 0.078126 0.40625 0.11719 0.61719 0.11719 0.20703 0 0.41406-0.039062 0.60938-0.11328l21.262-8.1328v14.773zm-21.871-10.07l-6.5195-2.5156-0.42969-0.16406-30.645-11.82 37.594-13.105 37.914 13.105z"/>
</svg>
