<svg width="40" height="40" viewBox="0 0 40 40" fill="none" xmlns="http://www.w3.org/2000/svg">
<g clip-path="url(#clip0_2080_14072)">
<path d="M37.602 8.09664C39.7954 12.379 38.0198 18.2629 36.7665 24.4949C35.5131 30.727 34.7819 37.2724 31.4048 39.2917C27.9928 41.2762 21.9697 38.7694 16.8866 35.7405C11.8035 32.7115 7.69518 29.1603 4.80546 23.3808C1.88093 17.6014 0.174948 9.5589 3.44764 4.99802C6.68552 0.471954 14.9369 -0.572522 22.109 0.263059C29.281 1.09864 35.4434 3.77946 37.602 8.09664Z" fill="#F9FAFB"/>
<path d="M18.4636 16.7463C18.6908 16.5658 18.9607 16.4345 19.25 16.3525V19.1474C18.9552 19.0637 18.686 18.9304 18.4636 18.7537C18.0699 18.441 17.9175 18.073 17.9175 17.75C17.9175 17.427 18.0699 17.059 18.4636 16.7463Z" fill="#172554"/>
<path d="M20.75 23.6616V20.8383C21.0972 20.9228 21.4138 21.0658 21.6713 21.259C22.0978 21.5788 22.25 21.9448 22.25 22.25C22.25 22.5551 22.0978 22.9211 21.6713 23.241C21.4138 23.4342 21.0972 23.5772 20.75 23.6616Z" fill="#172554"/>
<path fill-rule="evenodd" clip-rule="evenodd" d="M20 10.25C14.6152 10.25 10.25 14.6152 10.25 20C10.25 25.3848 14.6152 29.75 20 29.75C25.3848 29.75 29.75 25.3848 29.75 20C29.75 14.6152 25.3848 10.25 20 10.25ZM20.75 14C20.75 13.5858 20.4142 13.25 20 13.25C19.5858 13.25 19.25 13.5858 19.25 14V14.8156C18.6231 14.9267 18.0253 15.1787 17.5306 15.5718C16.8182 16.1377 16.4175 16.9213 16.4175 17.75C16.4175 18.5787 16.8182 19.3623 17.5306 19.9282C18.033 20.3274 18.6327 20.575 19.25 20.6843V23.6616C18.9028 23.5771 18.5864 23.4341 18.3289 23.241L17.45 22.5818C17.1186 22.3333 16.6485 22.4004 16.4 22.7318C16.1515 23.0631 16.2186 23.5332 16.55 23.7818L17.4289 24.441C17.9621 24.8409 18.5979 25.0856 19.25 25.1903V26C19.25 26.4142 19.5858 26.75 20 26.75C20.4142 26.75 20.75 26.4142 20.75 26V25.1904C21.4021 25.0856 22.0381 24.8409 22.5714 24.441C23.3164 23.8821 23.75 23.0965 23.75 22.25C23.75 21.4034 23.3164 20.6178 22.5714 20.059C22.0381 19.659 21.4021 19.4143 20.75 19.3096V16.3526C21.0392 16.4346 21.309 16.5658 21.5361 16.7463L21.951 17.0759C22.2753 17.3335 22.7471 17.2794 23.0048 16.9551C23.2624 16.6308 23.2084 16.159 22.884 15.9013L22.4691 15.5718C21.9745 15.1788 21.3768 14.9268 20.75 14.8157V14Z" fill="#172554"/>
</g>
<defs>
<clipPath id="clip0_2080_14072">
<rect width="40" height="35.5556" fill="white" transform="translate(0 2)"/>
</clipPath>
</defs>
</svg>
