<svg width="40" height="40" viewBox="0 0 40 40" fill="none" xmlns="http://www.w3.org/2000/svg">
<g clip-path="url(#clip0_2080_14078)">
<path d="M35.3785 8.61762C38.9956 12.8555 40.7501 18.9019 39.6974 24.5974C38.6447 30.3199 34.7577 35.6645 29.791 37.608C24.8513 39.5515 18.7779 38.0938 13.3253 35.4485C7.89976 32.7763 3.04104 28.9703 1.04356 23.5447C-0.953911 18.1191 -0.0901392 11.101 3.68886 6.80909C7.44088 2.51722 14.1081 0.951634 20.1815 1.41051C26.2549 1.86939 31.7615 4.35274 35.3785 8.61762Z" fill="#F9FAFB"/>
<path fill-rule="evenodd" clip-rule="evenodd" d="M20.5157 10.1703C20.2265 9.89636 19.7735 9.89636 19.4843 10.1703C17.4675 12.0803 14.7462 13.2506 11.75 13.2506C11.7023 13.2506 11.6547 13.2503 11.6072 13.2497C11.2798 13.2456 10.9877 13.4544 10.8854 13.7654C10.4729 15.0202 10.25 16.3601 10.25 17.7506C10.25 23.6927 14.3141 28.6836 19.8131 30.0989C19.9357 30.1305 20.0643 30.1305 20.1869 30.0989C25.6859 28.6836 29.75 23.6927 29.75 17.7506C29.75 16.3601 29.5271 15.0202 29.1146 13.7654C29.0123 13.4544 28.7202 13.2456 28.3928 13.2497C28.3453 13.2503 28.2977 13.2506 28.25 13.2506C25.2538 13.2506 22.5325 12.0803 20.5157 10.1703ZM23.6103 18.1864C23.8511 17.8494 23.773 17.3809 23.4359 17.1402C23.0989 16.8994 22.6305 16.9775 22.3897 17.3146L19.1543 21.8441L17.5303 20.2202C17.2374 19.9273 16.7626 19.9273 16.4697 20.2202C16.1768 20.5131 16.1768 20.9879 16.4697 21.2808L18.7197 23.5308C18.8756 23.6867 19.0921 23.7661 19.3119 23.7479C19.5316 23.7297 19.7322 23.6158 19.8603 23.4364L23.6103 18.1864Z" fill="#172554"/>
</g>
<defs>
<clipPath id="clip0_2080_14078">
<rect width="40" height="35.5556" fill="white" transform="translate(0 2)"/>
</clipPath>
</defs>
</svg>
