<svg width="40" height="40" viewBox="0 0 40 40" fill="none" xmlns="http://www.w3.org/2000/svg">
<g clip-path="url(#clip0_2080_14090)">
<path d="M32.1783 11.1274C36.8271 15.5741 41.0716 21.6377 39.7578 26.017C38.4103 30.3962 31.4372 33.0575 25.4409 34.8429C19.4784 36.6283 14.4253 37.5042 10.6524 35.7188C6.84582 33.9334 4.28563 29.4867 2.26442 23.9621C0.243212 18.4374 -1.20532 11.8348 1.42225 7.8261C4.08351 3.85106 10.8209 2.4699 16.716 3.17733C22.5775 3.88475 27.5632 6.68075 32.1783 11.1274Z" fill="#F9FAFB"/>
<path fill-rule="evenodd" clip-rule="evenodd" d="M24.5 20C26.9853 20 29 17.9853 29 15.5C29 15.0178 28.9242 14.5534 28.7838 14.1179C28.6792 13.7937 28.2734 13.7268 28.0325 13.9677L25.3402 16.66C25.2098 16.7904 25.0168 16.8416 24.8466 16.7707C24.1172 16.467 23.5334 15.8835 23.2292 15.1543C23.1582 14.984 23.2094 14.7909 23.3398 14.6604L26.0327 11.9676C26.2735 11.7267 26.2067 11.3209 25.8825 11.2164C25.4469 11.0759 24.9823 11 24.5 11C22.0147 11 20 13.0147 20 15.5C20 15.5978 20.0031 15.6949 20.0093 15.7912C20.065 16.6642 19.8817 17.5986 19.2097 18.1586L11.9802 24.1832C11.3591 24.7008 11 25.4674 11 26.2759C11 27.7804 12.2196 29 13.7241 29C14.5326 29 15.2992 28.6409 15.8168 28.0198L21.8414 20.7903C22.4014 20.1183 23.3358 19.935 24.2088 19.9907C24.3051 19.9969 24.4022 20 24.5 20ZM15 26C15 26.5523 14.5523 27 14 27C13.4477 27 13 26.5523 13 26C13 25.4477 13.4477 25 14 25C14.5523 25 15 25.4477 15 26Z" fill="#172554"/>
<path d="M24.5 21.5C24.6731 21.5 24.8445 21.4927 25.0138 21.4783L28.7678 25.2323C29.7441 26.2086 29.7441 27.7915 28.7678 28.7678C27.7915 29.7441 26.2086 29.7441 25.2323 28.7678L20.8216 24.3571L22.9938 21.7505C23.0455 21.6885 23.1413 21.6131 23.3357 21.5552C23.5378 21.4951 23.805 21.468 24.1132 21.4877C24.2413 21.4959 24.3702 21.5 24.5 21.5Z" fill="#172554"/>
<path d="M16 14.5858L18.3306 16.9163C18.3027 16.9563 18.275 16.985 18.2495 17.0062L16.7999 18.2142L14.5858 16H13.309C13.1197 16 12.9465 15.893 12.8618 15.7236L11.1612 12.3224C11.065 12.1299 11.1027 11.8974 11.2549 11.7452L11.7452 11.2549C11.8974 11.1027 12.1299 11.065 12.3224 11.1612L15.7236 12.8618C15.893 12.9465 16 13.1197 16 13.309V14.5858Z" fill="#172554"/>
</g>
<defs>
<clipPath id="clip0_2080_14090">
<rect width="40" height="35.5556" fill="white" transform="translate(0 2)"/>
</clipPath>
</defs>
</svg>
