<?xml version="1.0" encoding="UTF-8"?>
<svg fill="#20264B" width="100pt" height="100pt" version="1.1" viewBox="0 0 100 100" xmlns="http://www.w3.org/2000/svg">
 <path d="m49.102 89.602 0.89844 0.39844 0.89844-0.39844c12.199-4.6992 22.5-14.801 28-27.602 4.6992-10.699 4.3008-32 4.3008-32.898v-2.3008l-2.3008-0.10156c-11.898-0.5-21.398-5.1992-29-14.398l-1.8984-2.3008-1.8984 2.3008c-7.6016 9.1992-17.102 13.898-29 14.5l-2.3008 0.10156v2.3008c0 0.89844-0.30078 22.199 4.3008 32.898 5.5 12.797 15.797 22.797 28 27.5zm0.89844-71.902c7.6016 8.1992 17.102 12.801 28.199 13.898 0 5.6992-0.5 20.699-3.8984 28.5-4.9023 11.203-13.699 20.102-24.301 24.504-10.602-4.3984-19.398-13.301-24.301-24.5-3.3984-7.8008-3.8008-22.801-3.8984-28.5 11.098-1.1016 20.598-5.7031 28.199-13.902z"/>
</svg>
